<svg width="33" height="32" viewBox="0 0 33 32" fill="none" xmlns="http://www.w3.org/2000/svg">
<path d="M25.7439 27.0399C27.2012 26.3496 27.6614 23.8951 26.92 21.2361C26.2552 18.8584 24.67 16.4039 23.5707 15.1C22.3946 13.6938 21.4741 12.8756 20.6304 12.1853C20.1446 11.7763 19.4288 11.2393 18.4316 10.7536C17.7925 10.4468 18.0993 9.34736 19.2242 8.93829C19.9145 8.68261 20.7327 8.40137 22.1389 8.12013C23.8775 7.76219 25.5393 7.27641 26.741 6.84177C27.9427 6.40712 28.8119 5.97248 29.2466 5.64011C29.7324 5.2566 29.8346 4.84752 29.8346 4.56628C29.8346 4.38731 29.7324 4.10607 29.5278 3.90153C29.0165 3.39019 28.2239 2.85327 26.6132 2.69987C25.8461 2.62317 24.9513 2.6743 23.9542 2.87884C22.8036 3.10895 21.2185 3.82483 20.298 4.46401C19.1987 5.23103 18.3805 6.35599 17.8436 7.40425C17.3834 8.2991 17.2044 9.21953 17.1277 9.78201C17.0766 10.1655 16.9999 10.2422 16.5908 10.1655C14.9033 9.85871 12.2699 10.1655 9.76433 11.1626C8.15359 11.8018 6.54285 12.7734 5.49459 13.6171C4.5486 14.3841 4.01169 15.1256 3.57705 15.7647C3.24467 16.2505 3.16797 16.813 3.16797 17.4522C3.16797 18.2959 3.50034 19.1652 4.08839 19.5487C5.21335 20.2902 6.84966 20.0856 7.77008 19.3186C8.43483 18.7561 9.17628 18.0147 9.84103 17.2221C10.3779 16.5829 10.8126 15.9437 11.145 15.5602C11.9631 14.6142 13.3182 13.0291 14.6732 12.1342C15.4403 11.6229 16.9999 11.4439 16.8976 12.0831C16.8209 12.62 16.9232 12.6967 16.8976 13.2592C16.8209 14.8188 17.23 17.8868 17.9203 19.9578C18.7384 22.3867 19.7356 23.9718 20.9884 25.3013C22.369 26.7587 24.3377 27.7047 25.7439 27.0399Z" fill="#19AAF8"/>
</svg>
