<svg xmlns="http://www.w3.org/2000/svg" width="262" height="152" viewBox="0 0 262 152">
  <g fill="none">
    <rect width="7.702" height="38.551" x="173.686" y="13.338" fill="#DA7827"/>
    <path fill="#DA7827" d="M207.399872,13.6609487 C202.962667,13.6609487 199.496205,15.0045385 197.067667,17.6917179 L196.950103,14.2185385 L189.560359,14.3193077 L189.560359,51.8860769 L197.423718,51.8860769 L197.423718,32.4510513 C197.423718,24.4197436 200.362821,20.5166154 206.402256,20.5166154 C211.004051,20.5166154 213.147077,22.8678974 213.147077,27.9735385 L213.147077,51.8860769 L221.010436,51.8860769 L221.010436,27.6477179 C221.000359,18.4978718 216.297795,13.6609487 207.399872,13.6609487 Z"/>
    <path fill="#DA7827" d="M222.669769 0C218.843897 0 216.035795.524 214.084231 1.59887179L213.523282 1.91125641 214.211872 9.20694872 215.414385 8.73333333C216.029077 8.49820513 216.532923 8.29330769 216.972949 8.10520513 218.440821 7.50058974 219.045436 7.24866667 220.758513 7.24866667 223.163538 7.24866667 225.827205 8.08169231 227.231256 9.28084615 228.574846 10.4161795 228.709205 13.103359 228.709205 15.0314103L228.709205 52.1749487 236.612872 52.1749487 236.612872 12.7641026C236.612872 8.89120513 235.323026 5.75392308 232.773564 3.44294872 230.224103 1.13197436 226.855051 0 222.669769 0zM258.976923 17.4666667C257.069026 15.6192308 253.938462 14.6787179 249.645692 14.6787179 247.086998 14.6796289 244.540574 15.0322629 242.077923 15.7267179L241.187795 15.982 242.803462 23.1063846 243.791 22.8410256C245.661862 22.3297643 247.592035 22.0677397 249.531487 22.0617436 251.778641 22.0617436 252.363103 22.5252821 252.940846 23.1769231 253.689897 24.0267436 253.968692 24.3458462 253.968692 26.2302308L253.968692 28.2456154 243.394641 28.2456154 243.394641 35.0609744 253.968692 35.0609744 253.968692 51.872641 261.892513 51.872641 261.892513 26.2839744C261.892513 22.2968718 260.915051 19.3376154 258.976923 17.4666667z"/>
    <path fill="#737373" d="M178.112974 66.8435897L178.112974 68.5801795 180.000718 68.5801795 180.000718 69.5878718 178.112974 69.5878718 178.112974 73.494359C178.112974 74.3912051 178.368256 74.9017692 179.100513 74.9017692 179.358987 74.9122939 179.617492 74.8816815 179.866359 74.8110769L179.926821 75.8187692C179.549262 75.9404754 179.154569 76.0005868 178.757897 75.9967949 178.227062 76.022232 177.710457 75.8207192 177.337051 75.4425641 176.977641 75.0394872 176.826487 74.3945641 176.826487 73.5413846L176.826487 69.5811538 175.70459 69.5811538 175.70459 68.5734615 176.826487 68.5734615 176.826487 67.2298718 178.112974 66.8435897zM188.818026 74.0855385C188.812728 74.6662156 188.848648 75.2465366 188.925513 75.8221282L187.743154 75.8221282 187.635667 74.9084872 187.592 74.9084872C187.071205 75.6056599 186.245046 76.0074739 185.375077 75.9867179 183.910564 75.9867179 183.161513 74.9555128 183.161513 73.9075128 183.161513 72.1541282 184.716718 71.1968205 187.528179 71.2203333L187.528179 71.0725385C187.528179 70.4880769 187.36359 69.3930513 185.878923 69.4098462 185.207309 69.4026312 184.548035 69.5904948 183.981103 69.950641L183.678795 69.0672308C184.40667 68.6476797 185.233651 68.4307855 186.073744 68.4391026 188.290667 68.4391026 188.828103 69.950641 188.828103 71.3882821L188.818026 74.0855385zM187.544974 72.1272564C186.107333 72.0970256 184.478231 72.3489487 184.478231 73.756359 184.44677 74.0934358 184.565153 74.4272905 184.801936 74.6692495 185.03872 74.9112085 185.369937 75.0367814 185.707615 75.0126154 186.501514 75.0383175 187.221083 74.548196 187.487872 73.8000256 187.526302 73.6645439 187.545523 73.5243384 187.544974 73.3835128L187.544974 72.1272564zM193.927026 72.439641C193.957256 74.2198974 195.079154 74.9555128 196.412667 74.9555128 197.103954 74.9798622 197.792101 74.8514081 198.428051 74.5793077L198.666538 75.5231795C197.900138 75.8478401 197.07347 76.005846 196.241359 75.9867179 194.011 75.9867179 192.677487 74.5054103 192.677487 72.3187179 192.677487 70.1320256 193.967333 68.4290256 196.076769 68.4290256 198.454923 68.4290256 199.069615 70.4914359 199.069615 71.8249487 199.074967 72.030776 199.060343 72.2366372 199.025949 72.439641L193.927026 72.439641zM197.786487 71.4957692C197.786487 70.6728205 197.45059 69.3695385 195.962564 69.3695385 194.618974 69.3695385 194.04459 70.5821282 193.947179 71.4957692L197.786487 71.4957692zM201.158897 77.948359C201.693777 77.9537154 202.209612 77.7500327 202.596538 77.3806923 202.955949 76.9742564 203.107103 76.4065897 203.107103 74.67L203.107103 68.5768205 204.420462 68.5768205 204.420462 75.1772051C204.420462 76.5846154 204.198769 77.4982564 203.553846 78.1566154 202.93172 78.6987236 202.131812 78.9928602 201.306692 78.9829231L201.158897 77.948359zM204.571615 66.5278462C204.544015 66.9574336 204.187537 67.2917426 203.757064 67.2917426 203.326591 67.2917426 202.970113 66.9574336 202.942513 66.5278462 202.935979 66.3082355 203.020115 66.0956152 203.175154 65.9399409 203.330193 65.7842666 203.542467 65.6992614 203.762103 65.7048974 203.981606 65.7017037 204.192525 65.7900635 204.344209 65.9487582 204.495893 66.1074529 204.57464 66.3221464 204.561538 66.5412821L204.571615 66.5278462zM213.912923 74.0855385C213.906636 74.666133 213.941432 75.2464449 214.017051 75.8221282L212.834692 75.8221282 212.730564 74.9084872 212.686897 74.9084872C212.166103 75.6056599 211.339943 76.0074739 210.469974 75.9867179 209.005462 75.9867179 208.25641 74.9555128 208.25641 73.9075128 208.25641 72.1541282 209.811615 71.1968205 212.623077 71.2203333L212.623077 71.0725385C212.623077 70.4880769 212.458487 69.3930513 210.973821 69.4098462 210.302154 69.4022441 209.642773 69.5901385 209.076 69.950641L208.773692 69.0672308C209.500934 68.64614 210.328345 68.4291332 211.168641 68.4391026 213.385564 68.4391026 213.923 69.950641 213.923 71.3882821L213.912923 74.0855385zM212.643231 72.1272564C211.20559 72.0970256 209.573128 72.3489487 209.573128 73.756359 209.541796 74.0928111 209.659745 74.4260566 209.895755 74.6678856 210.131764 74.9097146 210.462038 75.0357445 210.799154 75.0126154 211.593052 75.0383175 212.312621 74.548196 212.57941 73.8000256 212.621365 73.6651544 212.642878 73.5247586 212.643231 73.3835128L212.643231 72.1272564zM219.754179 66.5412821C219.761273 66.7628258 219.674494 66.9770662 219.515221 67.1312221 219.355948 67.285378 219.138989 67.3651172 218.917795 67.3507949 218.702578 67.3565922 218.494627 67.2727087 218.343669 67.1192033 218.192711 66.9656979 218.11232 66.7563722 218.121718 66.5412821 218.116124 66.3213552 218.201029 66.108769 218.356592 65.9532069 218.512154 65.7976449 218.72474 65.7127392 218.944667 65.7183333 219.163445 65.712544 219.374808 65.7978452 219.528283 65.9538677 219.681758 66.1098902 219.763569 66.3226282 219.754179 66.5412821zM218.286308 75.8221282L218.286308 68.5768205 219.603026 68.5768205 219.603026 75.8221282 218.286308 75.8221282zM223.707692 75.0428462C223.694708 74.7966695 223.784011 74.5560667 223.954468 74.3779772 224.124925 74.1998876 224.361388 74.1001376 224.607897 74.1023333 224.853712 74.0977233 225.090001 74.1973382 225.258324 74.3765411 225.426646 74.555744 225.511285 74.7978011 225.491308 75.0428462 225.511673 75.3745202 225.346289 75.6900965 225.061966 75.8620932 224.777643 76.03409 224.421357 76.03409 224.137034 75.8620932 223.852711 75.6900965 223.687327 75.3745202 223.707692 75.0428462zM234.547103 75.5769231C233.891681 75.8628373 233.182908 76.005966 232.467897 75.9967949 230.281205 75.9967949 228.860359 74.5154872 228.860359 72.3019231 228.860359 70.088359 230.385333 68.4391026 232.750051 68.4391026 233.380578 68.4274116 234.005482 68.5595146 234.577333 68.8253846L234.278385 69.8330769C233.804017 69.5979773 233.279283 69.4826512 232.750051 69.4971795 231.090718 69.4971795 230.190513 70.74 230.190513 72.2347436 230.190513 73.9142308 231.268744 74.9454359 232.706385 74.9454359 233.263184 74.9546479 233.815062 74.8399123 234.322051 74.6095385L234.547103 75.5769231zM244.80541 72.1406923C244.80541 74.8278718 242.934462 75.9867179 241.194513 75.9867179 239.249667 75.9867179 237.724692 74.5490769 237.724692 72.2616154 237.724692 69.8498718 239.326923 68.4290256 241.315436 68.4290256 243.394641 68.4290256 244.80541 69.9405641 244.80541 72.1406923zM239.071641 72.2145897C239.071641 73.8000256 239.968487 74.9991795 241.254974 74.9991795 242.541462 74.9991795 243.455103 73.8168205 243.455103 72.184359 243.455103 70.9583333 242.84041 69.4165641 241.285205 69.4165641 239.73 69.4165641 239.071641 70.8542051 239.071641 72.2179487L239.071641 72.2145897zM248.711897 70.5384615C248.711897 69.7759744 248.681667 69.1747179 248.654795 68.5768205L249.806923 68.5768205 249.864026 69.7591795 249.907692 69.7591795C250.349916 68.9101731 251.238266 68.3883815 252.195154 68.4155897 253.116284 68.4099731 253.937624 68.9945182 254.234051 69.8666667L254.274359 69.8666667C254.474796 69.4945686 254.755988 69.1720591 255.097308 68.9227949 255.549396 68.5719731 256.110976 68.392315 256.682744 68.4155897 257.656846 68.4155897 259.077692 69.0437179 259.077692 71.5595897L259.077692 75.8086923 257.791205 75.8086923 257.791205 71.7376154C257.791205 70.3302051 257.267205 69.5038974 256.219205 69.5038974 255.499776 69.534222 254.87403 70.0062058 254.647205 70.6896154 254.578164 70.9068618 254.543042 71.133457 254.543077 71.3614103L254.543077 75.8355641 253.253231 75.8355641 253.253231 71.4823333C253.253231 70.3302051 252.746026 69.5038974 251.745051 69.5038974 250.975662 69.5523033 250.320927 70.0817494 250.11259 70.8239744 250.036436 71.0290086 250.001064 71.2469436 250.008462 71.4655385L250.008462 75.8322051 248.718615 75.8322051 248.711897 70.5384615z"/>
    <rect width="86.252" height="1" x="174.66" y="59.168" fill="#737373"/>
    <path fill="#FAA91C" d="M156.041154,113.126897 C153.746974,81.1628974 145.880256,49.5918974 135.470795,19.3208205 C134.238051,15.7435128 132.951564,12.1460513 131.345974,8.78371795 C130.338282,6.65748718 128.393436,0.265358974 125.605487,2.26058974 C123.324744,3.89305128 121.79641,8.73333333 120.002718,11.0644615 C118.921128,12.4685128 118.185513,13.6743846 116.448923,13.9464615 C114.883641,14.1883077 112.777564,13.1738974 111.161897,12.8581538 C102.401692,11.1618718 92.6875385,10.4128205 83.6552564,11.5548718 C79.1643077,12.1191795 74.6935128,12.5323333 70.3134103,13.1403077 C67.596,13.5265897 62.2518718,15.7468718 60.0315897,14.6652821 C57.4922051,13.4358974 55.3491795,8.777 53.8208462,6.55 C53.1221795,5.54230769 52.2152564,3.45302564 50.9220513,3.013 C46.4949231,1.53169231 41.6714359,19.0890513 40.4252564,22.0919744 C37.7716667,28.4740256 35.1583846,34.8963846 32.7197692,41.3792051 C27.6208462,54.9360256 25.9648718,68.9664615 23.3784615,83.0674359 C20.6711282,97.8469231 21.2589487,112.250205 20.2075897,127.49659 C20.1874359,127.798897 20.170641,128.141513 20.1672821,128.521077 L156.676,128.521077 C156.626735,123.381846 156.41512,118.250453 156.041154,113.126897 Z"/>
    <path fill="#FFE7BF" d="M104.883974,28.4538718 C105.48859,32.6928974 100.722205,36.2634872 97.0642821,36.7303846 C93.0872564,37.2409487 89.5334615,34.3791026 88.1260513,30.919359 C86.1106667,35.4942821 82.3284615,37.859 77.1724359,36.545641 C73.363359,35.5748974 69.2586923,30.4994872 71.3479744,26.5661282 C67.1492564,26.858359 63.0781795,30.2072564 59.8300513,32.6525897 C56.8372051,34.9064615 53.2901282,36.945359 51.1840513,40.1834103 C47.0424359,46.5654615 43.619641,54.1701795 42.3667436,61.4961026 C40.9761282,69.6080256 41.9401538,78.4958718 47.2641282,85.0559487 C51.7013333,90.5277179 60.4648974,94.7969744 67.2768974,96.0129231 C82.2579231,98.7001026 100.362795,99.56 114.111077,92.1803333 C120.701385,88.6366154 126.485538,84.098641 129.535487,77.0649487 C132.616995,69.914789 132.467661,61.7834733 129.125692,54.7512821 C126.398205,49.0175128 122.552179,43.8144615 118.209026,39.1488462 C114.205128,34.8762308 109.479051,32.5451026 105.135897,28.9207692"/>
    <path fill="#DA7827" d="M99.2476154 12.2300256C99.3517436 15.0011795 100.147821 32.6525897 94.5450513 30.8488205 90.9979744 29.7000513 93.2384103 15.0885128 94.1218205 12.4617949 95.8013077 11.7194615 97.4807949 11.5447949 98.7807179 12.7137179M86.4331282 11.1753077C86.7354359 15.8778718 85.6236154 20.6912821 84.3539231 25.3333846 83.3798205 28.8838205 81.8212564 34.5504103 78.9291795 29.3641538 77.5184103 26.8281282 77.686359 20.1236154 78.0491282 17.1038974 78.6571026 12.0923077 82.2948718 11.0174359 86.9504103 12.5827179M93.4668205 74.0317949C97.0004615 75.0865128 96.3790513 81.1729744 93.6045385 83.3764615 91.0046923 85.4422308 87.3635641 83.9575641 86.0367692 81.4047436 85.6001026 84.0919231 80.3869744 85.4355128 78.3883846 83.7728205 76.3058205 82.0395897 76.0102308 77.7266667 76.9977692 75.8221282 77.7199487 74.4214359 78.989641 72.9065385 79.4498205 75.1503333 79.7857179 76.7727179 79.651359 77.6158205 79.7386923 79.3121026 79.8260256 81.0083846 81.0318974 82.3083077 83.054 81.5794103 84.6327179 81.0083846 85.0693846 79.1072051 86.2215128 78.1230256 87.5214359 79.6547179 90.386641 83.3798205 92.5061538 80.1216154 93.7422564 78.2204359 91.3473077 74.2669231 93.4668205 74.0485897M45.9507692 65.6477949C45.9589576 68.4177779 47.635648 70.9098256 50.1984239 71.9610403 52.7611999 73.012255 55.7049033 72.4154279 57.6558744 70.4490646 59.6068455 68.4827012 60.1805212 65.5343986 59.1091996 62.9799627 58.0378779 60.4255267 55.5327311 58.7684717 52.7627692 58.7820513 48.9865277 58.7987134 45.9377556 61.871539 45.9507692 65.6477949z"/>
    <path fill="#FFF" d="M47.1398462,63.6357692 C47.142572,64.6848913 47.777183,65.6290049 48.7476166,66.0276566 C49.7180501,66.4263082 50.8330802,66.2009427 51.5725162,65.4566989 C52.3119522,64.7124552 52.5300867,63.5959879 52.1251542,62.6281583 C51.7202217,61.6603287 50.7720151,61.0318497 49.7228974,61.0359231 C49.0351868,61.0368069 48.3761435,61.3115404 47.8914366,61.7993989 C47.4067296,62.2872573 47.1362731,62.9480673 47.1398462,63.6357692 Z"/>
    <path fill="#DA7827" d="M111.44741,65.0095897 C111.459672,67.7799959 113.13975,70.2701627 115.704087,71.3187225 C118.268423,72.3672822 121.211905,71.7676934 123.161747,69.7995932 C125.111588,67.8314929 125.683717,64.8825505 124.611302,62.3280981 C123.538887,59.7736457 121.033169,58.1168502 118.262769,58.1304103 C114.483824,58.1544521 111.43623,61.2305843 111.44741,65.0095897 Z"/>
    <path fill="#FFF" d="M114.053974,61.6774872 C114.057689,63.105915 115.218669,64.2608739 116.647097,64.2571621 C118.075525,64.2534502 119.230486,63.0924734 119.226777,61.6640455 C119.223069,60.2356177 118.062095,59.0806536 116.633667,59.084359 C115.947432,59.0852461 115.289755,59.3591647 114.805775,59.8456653 C114.321795,60.3321659 114.051297,60.9912568 114.053974,61.6774872 Z"/>
    <path fill="#FAA91C" d="M141.681538,138.725641 C140.643615,151.432641 156.635692,149.393744 162.691923,144.157103 C168.815333,138.856641 172.117205,135.087872 173.722795,127.395821 C176.745872,112.895128 174.888359,97.4707179 171.630154,83.185 C164.139641,50.3611026 120.597256,60.5858205 131.634846,86.7287179 C137.009205,99.4659487 150.831385,96.9232051 159.648692,89.3789487"/>
    <path fill="#EF4D4E" d="M113.459436,100.332564 C125.215846,86.7623077 138.792821,101.642564 139.659436,102.626744 C140.52941,101.642564 154.123179,86.7623077 165.859436,100.332564 C177.662872,113.97 164.179949,132.31 145.581308,145.060667 C144.080966,146.202718 142.507846,147.366043 140.861949,148.550641 C140.775171,148.577223 140.693435,148.618091 140.620103,148.671564 C140.333119,148.901116 139.979694,149.031884 139.61241,149.04441 C139.276538,149.018008 138.957216,148.887696 138.698769,148.671564 C138.625049,148.622783 138.546201,148.582233 138.463641,148.550641 C136.649795,147.247359 134.925521,145.973188 133.290821,144.728128 C114.967615,132.007692 101.756769,113.845718 113.459436,100.332564 Z"/>
    <path fill="#FFF" d="M139.622487,151.489744 L139.441103,151.489744 C138.77995,151.440003 138.141581,151.226444 137.58359,150.868333 L137.472744,150.844821 L137.049513,150.542513 C135.333077,149.309769 133.626718,148.046795 131.826308,146.683051 C117.231564,136.549026 108.064923,124.748949 106.761641,114.373077 C106.029385,108.56541 107.665205,103.288462 111.615359,98.7437692 C115.360615,94.4174103 119.676897,92.224 124.480231,92.224 C131.114205,92.224 136.827821,96.5705128 139.662795,99.1804359 C142.491051,96.5705128 148.197949,92.224 154.852077,92.224 C159.641974,92.224 163.971692,94.4174103 167.716949,98.7471282 C171.687256,103.332128 173.319718,108.619154 172.567308,114.463769 C171.223718,124.950487 161.909282,136.824462 147.039103,147.045821 C145.567872,148.167718 143.979077,149.343359 142.316385,150.542513 L141.721846,150.895205 C141.091171,151.285226 140.364016,151.491156 139.622487,151.489744 Z M124.480231,97.0945128 C121.121256,97.0945128 118.118333,98.6765897 115.303513,101.931436 C112.297231,105.401256 111.05441,109.378282 111.608641,113.751667 C112.723821,122.626077 121.349667,133.45541 134.694872,142.726179 C136.461692,144.069769 138.070641,145.252128 139.676231,146.421051 C141.225838,145.301393 142.706026,144.205248 144.116795,143.132615 L144.217564,143.062077 C157.781103,133.754359 166.571538,122.830974 167.730385,113.839 C168.298051,109.435385 167.05859,105.441564 164.035513,101.941513 C161.217333,98.6866667 158.217769,97.1045897 154.858795,97.1045897 C147.905718,97.1045897 141.758795,103.960256 141.500154,104.252487 L139.676231,106.314897 L137.848949,104.255846 C137.58359,103.953538 131.406436,97.0945128 124.480231,97.0945128 Z"/>
    <path fill="#E78724" d="M46.7199744,110.658051 C30.5162821,87.111641 6.84894872,104.299513 3.93,123.274359 L3.93,125.021026 C18.7497949,123.274359 15.6259487,138.836487 25.1452821,141.076923 C43.8614872,145.520846 59.9711282,129.921769 46.7199744,110.658051 Z"/>
    <path fill="#FAA91C" d="M44.0999744,108.04141 C27.3420513,87.2392821 2.92230769,106.919513 0,125.907795 L0,127.641026 C14.8231538,125.897718 13.0059487,136.209769 22.5252821,138.463641 C41.2448462,142.907564 58.7820513,126.253769 44.0999744,108.04141 Z"/>
    <path fill="#DA7827" d="M196.741846,119.639949 C199.207333,112.586103 200.644974,105.468436 200.406487,97.9577692 C199.979897,84.6562308 187.759949,81.3812308 183.336179,95.0287436 C180.863974,102.643538 181.149487,110.258333 180.077974,117.957103 C180.077974,117.957103 187.051205,113.304923 196.741846,119.639949 Z"/>
    <path fill="#FAA91C" d="M193.779231,127.080077 C194.870897,124.601154 195.875231,122.12559 196.741846,119.639949 C187.051205,113.304923 180.077974,117.960462 180.077974,117.960462 C179.849231,119.704757 179.524032,121.43504 179.103872,123.143359 C184.014692,122.491718 189.694718,124.853077 193.779231,127.080077 Z"/>
    <path fill="#DA7827" d="M193.319051,128.111282 C193.480282,127.775385 193.624718,127.439487 193.779231,127.080077 C189.694718,124.853077 184.014692,122.491718 179.103872,123.14 C178.698083,124.852962 178.176238,126.536335 177.541949,128.178462 L193.292179,128.178462 C193.299423,128.15542 193.308406,128.132963 193.319051,128.111282 Z"/>
    <path fill="#E78724" d="M131.634846,86.722 C125.682744,72.6143077 135.601795,63.1621538 147.180179,62.5743333 C134.668,61.9260513 122.968692,71.6905897 129.313795,86.722 C132.209231,93.5776667 137.55,96.0028462 143.240103,95.6064872 C138.450205,95.2504359 134.130564,92.6371538 131.634846,86.722 Z"/>
    <path fill="#FAA91C" d="M169.309103,83.1782821 C166.124795,69.2284615 156.430795,63.0580256 147.180179,62.5743333 C135.601795,63.1621538 125.682744,72.6243846 131.634846,86.722 C134.130564,92.6371538 138.450205,95.2504359 143.240103,95.6064872 C146.088343,95.7619425 148.935874,95.2883097 151.580436,94.2192308 C152.672103,93.8027179 153.595821,93.0637436 154.667333,92.5834103 C155.913513,92.0191026 157.354513,92.4322564 158.698103,92.6304359 C160.041692,92.8286154 160.280179,91.7503846 161.355051,91.1927949 C162.497103,90.6049744 163.981769,90.4101538 165.217872,90.0876923 C165.553769,89.997 170.558641,88.7004359 170.568718,88.7441026 C170.175718,86.9974359 169.759205,85.1432821 169.309103,83.1782821 Z"/>
  </g>
</svg>
